<svg xmlns="http://www.w3.org/2000/svg" viewBox="0 0 512 512">
  <defs>
    <linearGradient id="grad" x1="0%" y1="0%" x2="100%" y2="100%">
      <stop offset="0%" style="stop-color:#2563eb;stop-opacity:1" />
      <stop offset="100%" style="stop-color:#7c3aed;stop-opacity:1" />
    </linearGradient>
  </defs>
  <circle cx="256" cy="256" r="240" fill="url(#grad)" />
  <path d="M369.8 300.2L350.6 288c-.6-.4-1.2-1-1.6-1.6l-18.4-27.6c-4.2-6.2-8.6-12.2-13.4-18l-1.4-1.6c-8.2-9.6-16.8-19.8-25.6-30.2-8.8 10.4-17.4 20.6-25.6 30.2l-1.4 1.6c-4.8 5.8-9.2 11.8-13.4 18l-18.4 27.6c-.4.6-1 1.2-1.6 1.6L210 300.2c-2.4 1.6-4.2 4-5.2 6.8-1 2.8-.8 5.8.4 8.4l16 32c1.4 2.8 3.8 5 6.8 6 3 .8 6 .2 8.4-1.6l19.2-12.8c.6-.4 1.4-.6 2.2-.6h4.8c.8 0 1.6.2 2.2.6l19.2 12.8c2.4 1.6 5.4 2.2 8.4 1.6 3-1 5.4-3.2 6.8-6l16-32c1.2-2.6 1.4-5.6.4-8.4-1-2.8-2.8-5.2-5.2-6.8zM256 160c-26.4 0-48 21.6-48 48s21.6 48 48 48 48-21.6 48-48-21.6-48-48-48zm0-64c-61.8 0-112 50.2-112 112s50.2 112 112 112 112-50.2 112-112S317.8 96 256 96z" fill="white" opacity="0.9"/>
  <path d="M216 192l-40 40 40 40M296 192l40 40-40 40M264 256l-16-64" stroke="white" stroke-width="24" stroke-linecap="round" stroke-linejoin="round" fill="none"/>
</svg>
